<svg xmlns="http://www.w3.org/2000/svg" data-name="Layer 1" viewBox="0 0 64 64" id="connect"><circle cx="10" cy="27" r="3" fill="#f8d6a9"></circle><path fill="#7599cd" d="M14,43V56H6V43H3V35a4,4,0,0,1,4-4h6a4,4,0,0,1,4,4v8Z"></path><circle cx="54" cy="27" r="3" fill="#f8d6a9"></circle><path fill="#7599cd" d="M58,43V56H50V43H47V35a4,4,0,0,1,4-4h6a4,4,0,0,1,4,4v8Z"></path><rect width="20" height="40" x="22" y="21" fill="#a1aab3" rx="5"></rect><rect width="20" height="28" x="22" y="27" fill="#ffeb99"></rect><path d="M32 2A22.984 22.984 0 0 0 9.379 20.819l1.967.362a21.005 21.005 0 0 1 41.308 0l1.967-.362A22.984 22.984 0 0 0 32 2zM13 30h-.382a4 4 0 1 0-5.236 0H7a5.006 5.006 0 0 0-5 5v8a1 1 0 0 0 1 1H5V56a1 1 0 0 0 1 1h8a1 1 0 0 0 1-1V44h2a1 1 0 0 0 1-1V35A5.006 5.006 0 0 0 13 30zm-3-5a2 2 0 1 1-2 2A2 2 0 0 1 10 25zm6 17H15V36H13V55H11V43H9V55H7V36H5v6H4V35a3 3 0 0 1 3-3h6a3 3 0 0 1 3 3zM57 30h-.382a4 4 0 1 0-5.236 0H51a5.006 5.006 0 0 0-5 5v8a1 1 0 0 0 1 1h2V56a1 1 0 0 0 1 1h8a1 1 0 0 0 1-1V44h2a1 1 0 0 0 1-1V35A5.006 5.006 0 0 0 57 30zm-3-5a2 2 0 1 1-2 2A2 2 0 0 1 54 25zm6 17H59V36H57V55H55V43H53V55H51V36H49v6H48V35a3 3 0 0 1 3-3h6a3 3 0 0 1 3 3z"></path><rect width="8" height="2" x="28" y="23"></rect><rect width="2" height="2" x="31" y="57"></rect><path d="M37,20H27a6.006,6.006,0,0,0-6,6V56a6.006,6.006,0,0,0,6,6H37a6.006,6.006,0,0,0,6-6V26A6.006,6.006,0,0,0,37,20ZM27,22H37a4,4,0,0,1,4,4H23A4,4,0,0,1,27,22Zm14,6V54H23V28ZM37,60H27a4,4,0,0,1-4-4H41A4,4,0,0,1,37,60Z"></path><path d="M31,42v3c-1.084,0-2-.687-2-1.5H27A3.779,3.779,0,0,0,31,47v2h2V47a3.779,3.779,0,0,0,4-3.5A3.779,3.779,0,0,0,33,40V37c1.084,0,2,.687,2,1.5h2A3.779,3.779,0,0,0,33,35V33H31v2a3.779,3.779,0,0,0-4,3.5A3.779,3.779,0,0,0,31,42Zm4,1.5c0,.813-.916,1.5-2,1.5V42C34.084,42,35,42.687,35,43.5ZM31,37v3c-1.084,0-2-.687-2-1.5S29.916,37,31,37Z"></path></svg>