<svg xmlns="http://www.w3.org/2000/svg" viewBox="0 0 64 64" id="development-brain"><path fill="#2c3a45" d="M54.7 34.3c-.3-.5-.5-.9-.7-1.3-.4-.7-.4-1.5 0-2.4.9-1.9 1.3-3.8 1.3-5.7-.1-3.2-1-7.7-4.6-11.9-.3 1.2-.7 2.3-1.2 3.5 2.1 3.1 2.7 6.2 2.7 8.4 0 1.4-.3 2.8-1 4.3-.6 1.3-1 3.2.1 5.2.2.4.5.8.8 1.4 1.3 2.3 2.1 3.8 2.3 4.5-.8.3-1.7.4-1.7.4-.7.1-1.2.7-1.3 1.4 0 0-.1 1.6 0 3.3l-.7.5c-.6.4-.9 1.2-.6 1.9l.3.7c-.1.2-.3.4-.7.7l-.3.3c-.1.1-.9 1.4-.3 3.1.2.7.2 1.4 0 1.8 0 .1-.1.2-.5.3-.5.1-1 .1-1.5.1-.6 0-1.4-.1-2.2-.1l-.8-.1h-.5c-1.7 0-3.4.7-4.6 1.9-1.1 1.1-1.8 2.6-1.9 4.3H16.5c.2-.7.4-1.3.5-1.7 1.8-7.4.6-14.5-3.7-21.1-2.8-4.4-6.4-12.6-.3-20.8-.5-1.1-1-2.2-1.3-3.4-9.2 10.5-3.8 21.5-1 25.8 3.8 5.9 5 12.2 3.3 18.7-.1.4-.3 1.1-.5 1.7l-.1.2-.5 1.5c-.2.5-.1 1 .2 1.4.3.4.8.7 1.3.7h24.3c.7 0 1.3-.5 1.5-1.2.1-.2.1-.4.1-.5v-.2c-.1-1.3.3-2.5 1.1-3.4.6-.6 1.4-1 2.3-1h.3l.8.1c.9.1 1.7.1 2.4.1.8 0 1.5-.1 2.2-.2 1.1-.2 2-.9 2.6-1.8 1-1.6.5-3.7.3-4.3-.1-.2-.1-.3 0-.4.7-.7 1.2-1.4 1.4-2.1.1-.5.1-1 0-1.5h.1c.7-.5 1-1.3.9-2.2-.1-.7-.1-1.4-.1-1.9.5-.1 1.2-.4 1.8-.6.6-.3 1-.7 1.2-1.4.3-1.4-.9-3.7-2.9-7z"></path><path fill="#0171b9" d="M13 12.5c.2 1.1.6 2.1 1.1 3.2 2.6 6 8.6 12.3 16.8 17.4l.1.1.1-.1c10.3-6.4 17.3-14.8 18.1-22 .4-3.2-.5-5.9-2.5-8-2-2-4.6-3.1-7.3-3.1-3.1 0-6.1 1.4-8.4 3.8C28.7 1.4 25.7 0 22.6 0c-2.8 0-5.3 1.1-7.3 3.1s-2.9 4.8-2.5 8c0 .4.1.9.2 1.4zm27.2-1.8c.9 0 1.6.7 1.6 1.6 0 .9-.7 1.6-1.6 1.6-.9 0-1.6-.7-1.6-1.6 0-.9.7-1.6 1.6-1.6zm-9.2 0c.9 0 1.6.7 1.6 1.6 0 .9-.7 1.6-1.6 1.6-.9 0-1.6-.7-1.6-1.6 0-.9.7-1.6 1.6-1.6zm-9.2 0c.9 0 1.6.7 1.6 1.6s-.7 1.7-1.6 1.7c-.9 0-1.6-.7-1.6-1.6s.7-1.7 1.6-1.7z"></path></svg>