<svg xmlns="http://www.w3.org/2000/svg" xmlns:xlink="http://www.w3.org/1999/xlink" viewBox="0 0 48 48" id="innovation"><defs><linearGradient id="a" x1="19" x2="35" y1="37" y2="37" gradientUnits="userSpaceOnUse"><stop offset="0" stop-color="#54a5ff"></stop><stop offset="1" stop-color="#8ad3fe"></stop></linearGradient><linearGradient id="c" x1="19" x2="35" y1="41" y2="41" xlink:href="#a"></linearGradient><linearGradient id="d" x1="12" x2="42" y1="18" y2="18" xlink:href="#a"></linearGradient><linearGradient id="b" x1="26" x2="34" y1="24.5" y2="24.5" gradientUnits="userSpaceOnUse"><stop offset="0" stop-color="#d3e6f5"></stop><stop offset="1" stop-color="#f0f7fc"></stop></linearGradient><linearGradient id="e" x1="11" x2="17" y1="9" y2="9" xlink:href="#b"></linearGradient><linearGradient id="f" x1="20" x2="28" y1="27.5" y2="27.5" xlink:href="#b"></linearGradient></defs><rect width="16" height="4" x="19" y="35" fill="url(#a)" rx="2"></rect><rect width="16" height="4" x="19" y="39" fill="url(#c)" rx="2"></rect><path fill="#54a5ff" d="M23 43h8a4 4 0 0 1-4 4 4 4 0 0 1-4-4Z"></path><path fill="url(#d)" d="M12 16.07a14.93 14.93 0 0 0 3.89 10A16.32 16.32 0 0 1 20 34.68V35h14v-.29a17.3 17.3 0 0 1 4.24-8.83 14.93 14.93 0 0 0 3.72-10A15.13 15.13 0 0 0 27.68 1a15 15 0 0 0-8.3 2.05"></path><path fill="url(#b)" d="M26 20.25V14h8v21h-8V20.25z"></path><path fill="#b4cde1" d="M21.07 7a.93.93 0 0 1-.66-1.59.91.91 0 0 0 0-1.31L18.9 2.59a.91.91 0 0 0-1.31 0A.93.93 0 0 1 16 1.93a.93.93 0 0 0-.93-.93h-2.14a.93.93 0 0 0-.93.93.93.93 0 0 1-1.59.66.91.91 0 0 0-1.31 0L7.59 4.1a.91.91 0 0 0 0 1.31A.93.93 0 0 1 6.93 7a.93.93 0 0 0-.93.93v2.14a.93.93 0 0 0 .93.93.93.93 0 0 1 .66 1.59.91.91 0 0 0 0 1.31l1.51 1.51a.91.91 0 0 0 1.31 0 .93.93 0 0 1 1.59.66.93.93 0 0 0 .93.93h2.14a.93.93 0 0 0 .93-.93.93.93 0 0 1 1.59-.66.91.91 0 0 0 1.31 0l1.51-1.51a.91.91 0 0 0 0-1.31.93.93 0 0 1 .66-1.59.93.93 0 0 0 .93-.93V7.93a.93.93 0 0 0-.93-.93Z"></path><circle cx="14" cy="9" r="3" fill="url(#e)"></circle><path fill="url(#f)" d="M28 35h-8V21l8-1v15z"></path></svg>